<svg version="1.1" xmlns="http://www.w3.org/2000/svg" xmlns:xlink="http://www.w3.org/1999/xlink" width="49.25" height="49.75" viewBox="0,0,49.25,49.75"><defs><linearGradient x1="69.57243" y1="234.54507" x2="52.46165" y2="234.55757" gradientUnits="userSpaceOnUse" id="color-1"><stop offset="0" stop-color="#000000"/><stop offset="1" stop-color="#000000"/></linearGradient><linearGradient x1="69.57241" y1="224.69002" x2="52.46163" y2="224.70252" gradientUnits="userSpaceOnUse" id="color-2"><stop offset="0" stop-color="#000000"/><stop offset="1" stop-color="#000000"/></linearGradient></defs><g transform="translate(-215.375,-155.125)"><g data-paper-data="{&quot;isPaintingLayer&quot;:true}" fill-rule="nonzero" stroke="#000000" stroke-linecap="butt" stroke-linejoin="miter" stroke-miterlimit="10" stroke-dasharray="" stroke-dashoffset="0" style="mix-blend-mode: normal"><path d="M262.625,180c0,12.63351 -10.12956,22.875 -22.625,22.875c-12.49544,0 -22.625,-10.24149 -22.625,-22.875c0,-12.63351 10.12956,-22.875 22.625,-22.875c12.49544,0 22.625,10.24149 22.625,22.875z" fill="none" stroke-width="4"/><path d="M234.63682,185.52293c2.34103,2.33695 3.46881,3.46321 3.46881,3.46321c0,0 -0.01004,-8.68482 -0.01291,-12.62918c-0.00071,-1.03317 0.83635,-1.87133 1.8694,-1.87209c1.03323,-0.00077 1.87116,0.83615 1.87191,1.86936c0.00242,3.30693 0.01307,12.61901 0.01307,12.61901c0,0 0.63227,-0.62564 3.51409,-3.51185c0.73011,-0.73117 1.91444,-0.73204 2.64543,-0.00193c0.73099,0.73045 0.73205,1.9146 0.00194,2.64559c-2.33657,2.34036 -6.70669,6.71631 -6.70669,6.71631c-0.73007,0.73099 -1.91461,0.73186 -2.64544,0.00194c0,0 -3.7765,-3.77081 -6.66271,-6.65282c-0.73153,-0.73044 -0.73239,-1.91478 -0.00194,-2.64561c0.72992,-0.73117 1.9146,-0.73205 2.64505,-0.00194z" data-paper-data="{&quot;index&quot;:null}" fill="url(#color-1)" stroke-width="0"/><path d="M234.6368,175.66788c2.34103,2.33695 3.46881,3.46321 3.46881,3.46321c0,0 -0.01004,-8.68482 -0.01291,-12.62918c-0.00071,-1.03317 0.83635,-1.87133 1.8694,-1.87209c1.03323,-0.00077 1.87116,0.83615 1.87191,1.86936c0.00242,3.30693 0.01307,12.61901 0.01307,12.61901c0,0 0.63227,-0.62564 3.51409,-3.51185c0.73011,-0.73117 1.91444,-0.73204 2.64543,-0.00193c0.73099,0.73045 0.73205,1.9146 0.00194,2.64559c-2.33657,2.34036 -6.70669,6.71631 -6.70669,6.71631c-0.73007,0.73099 -1.91461,0.73186 -2.64544,0.00194c0,0 -3.7765,-3.77081 -6.66271,-6.65282c-0.73153,-0.73044 -0.73239,-1.91478 -0.00194,-2.64561c0.72992,-0.73117 1.9146,-0.73205 2.64505,-0.00194z" data-paper-data="{&quot;index&quot;:null}" fill="url(#color-2)" stroke-width="0"/></g></g></svg>