<svg version="1.1" xmlns="http://www.w3.org/2000/svg" xmlns:xlink="http://www.w3.org/1999/xlink" width="49.25" height="49.75" viewBox="0,0,49.25,49.75"><defs><linearGradient x1="69.57243" y1="125.45493" x2="52.46165" y2="125.44243" gradientUnits="userSpaceOnUse" id="color-1"><stop offset="0" stop-color="#000000"/><stop offset="1" stop-color="#000000"/></linearGradient><linearGradient x1="69.57241" y1="135.30998" x2="52.46163" y2="135.29748" gradientUnits="userSpaceOnUse" id="color-2"><stop offset="0" stop-color="#000000"/><stop offset="1" stop-color="#000000"/></linearGradient></defs><g transform="translate(-215.375,-155.125)"><g data-paper-data="{&quot;isPaintingLayer&quot;:true}" fill-rule="nonzero" stroke="#000000" stroke-linecap="butt" stroke-linejoin="miter" stroke-miterlimit="10" stroke-dasharray="" stroke-dashoffset="0" style="mix-blend-mode: normal"><path d="M262.625,180c0,12.63351 -10.12956,22.875 -22.625,22.875c-12.49544,0 -22.625,-10.24149 -22.625,-22.875c0,-12.63351 10.12956,-22.875 22.625,-22.875c12.49544,0 22.625,10.24149 22.625,22.875z" fill="none" stroke-width="4"/><path d="M234.63683,174.47707c-0.73045,0.73011 -1.91513,0.72923 -2.64505,-0.00194c-0.73045,-0.73083 -0.72959,-1.91517 0.00194,-2.64561c2.88621,-2.88201 6.66271,-6.65282 6.66271,-6.65282c0.73083,-0.72992 1.91537,-0.72905 2.64544,0.00194c0,0 4.37012,4.37595 6.70669,6.71631c0.73011,0.73099 0.72905,1.91514 -0.00194,2.64559c-0.73099,0.73011 -1.91532,0.72924 -2.64543,-0.00193c-2.88182,-2.88621 -3.51409,-3.51185 -3.51409,-3.51185c0,0 -0.01065,9.31208 -0.01307,12.61901c-0.00075,1.03321 -0.83868,1.87013 -1.87191,1.86936c-1.03305,-0.00076 -1.87011,-0.83892 -1.8694,-1.87209c0.00287,-3.94436 0.01291,-12.62918 0.01291,-12.62918c0,0 -1.12778,1.12626 -3.46881,3.46321z" data-paper-data="{&quot;index&quot;:null}" fill="url(#color-1)" stroke-width="0"/><path d="M234.63681,184.33212c-0.73045,0.73011 -1.91513,0.72923 -2.64505,-0.00194c-0.73045,-0.73083 -0.72959,-1.91517 0.00194,-2.64561c2.88621,-2.88201 6.66271,-6.65282 6.66271,-6.65282c0.73083,-0.72992 1.91537,-0.72905 2.64544,0.00194c0,0 4.37012,4.37595 6.70669,6.71631c0.73011,0.73099 0.72905,1.91514 -0.00194,2.64559c-0.73099,0.73011 -1.91532,0.72924 -2.64543,-0.00193c-2.88182,-2.88621 -3.51409,-3.51185 -3.51409,-3.51185c0,0 -0.01065,9.31208 -0.01307,12.61901c-0.00075,1.03321 -0.83868,1.87013 -1.87191,1.86936c-1.03305,-0.00076 -1.87011,-0.83892 -1.8694,-1.87209c0.00287,-3.94436 0.01291,-12.62918 0.01291,-12.62918c0,0 -1.12778,1.12626 -3.46881,3.46321z" data-paper-data="{&quot;index&quot;:null}" fill="url(#color-2)" stroke-width="0"/></g></g></svg>