<svg version="1.1" xmlns="http://www.w3.org/2000/svg" xmlns:xlink="http://www.w3.org/1999/xlink" width="49.25372" height="49.87522" viewBox="0,0,49.25372,49.87522"><g transform="translate(-215.38784,-155)"><g data-paper-data="{&quot;isPaintingLayer&quot;:true}" fill-rule="nonzero" stroke-linecap="butt" stroke-linejoin="miter" stroke-miterlimit="10" stroke-dasharray="" stroke-dashoffset="0" style="mix-blend-mode: normal"><path d="M251.90008,160.72242c6.42991,3.9968 10.71215,11.1359 10.71215,19.27758c0,12.51845 -10.12382,22.66666 -22.61219,22.66666c-12.48837,0 -22.6122,-10.14821 -22.6122,-22.66666c0,-8.23581 4.38183,-15.44572 10.93602,-19.41494" fill="none" stroke="#000000" stroke-width="4"/><text transform="translate(223.89369,184.17985) scale(0.34832,0.34832)" font-size="40" xml:space="preserve" fill="#000000" fill-rule="nonzero" stroke="none" stroke-width="1" stroke-linecap="butt" stroke-linejoin="miter" stroke-miterlimit="10" stroke-dasharray="" stroke-dashoffset="0" font-family="Sans Serif" font-weight="normal" text-anchor="start" style="mix-blend-mode: normal"><tspan x="0" dy="0">cube</tspan></text><text transform="translate(236.69028,194.33126) scale(0.20206,0.20206)" font-size="40" xml:space="preserve" fill="#000000" fill-rule="nonzero" stroke="none" stroke-width="1" stroke-linecap="butt" stroke-linejoin="miter" stroke-miterlimit="10" stroke-dasharray="" stroke-dashoffset="0" font-family="Sans Serif" font-weight="normal" text-anchor="start" style="mix-blend-mode: normal"><tspan x="0" dy="0">...</tspan></text><path d="M247.57486,158.42826c9.02129,3.22354 15.35862,12.05249 15.05633,22.24283c-0.3746,12.62796 -10.80337,22.56459 -23.29332,22.19409c-12.48995,-0.3705 -22.31138,-10.90784 -21.93679,-23.53579c0.29051,-9.79347 6.62823,-17.96823 15.28474,-20.9718" fill="none" stroke="#000000" stroke-width="4"/><path d="M238.75,159.5v-2.5h2.5v2.5z" fill="none" stroke="#000000" stroke-width="4"/></g></g></svg>