<svg version="1.1" xmlns="http://www.w3.org/2000/svg" xmlns:xlink="http://www.w3.org/1999/xlink" width="49.25085" height="49.83338" viewBox="0,0,49.25085,49.83338"><g transform="translate(-215.37457,-154.42543)"><g data-paper-data="{&quot;isPaintingLayer&quot;:true}" fill-rule="nonzero" stroke-linecap="butt" stroke-linejoin="miter" stroke-miterlimit="10" stroke-dasharray="" stroke-dashoffset="0" style="mix-blend-mode: normal"><text transform="translate(223.06472,184.17985) scale(0.34832,0.34832)" font-size="40" xml:space="preserve" fill="#000000" fill-rule="nonzero" stroke="none" stroke-width="1" stroke-linecap="butt" stroke-linejoin="miter" stroke-miterlimit="10" stroke-dasharray="" stroke-dashoffset="0" font-family="Sans Serif" font-weight="normal" text-anchor="start" style="mix-blend-mode: normal"><tspan x="0" dy="0">open</tspan></text><text transform="translate(236.69031,194.33125) scale(0.20206,0.20206)" font-size="40" xml:space="preserve" fill="#000000" fill-rule="nonzero" stroke="none" stroke-width="1" stroke-linecap="butt" stroke-linejoin="miter" stroke-miterlimit="10" stroke-dasharray="" stroke-dashoffset="0" font-family="Sans Serif" font-weight="normal" text-anchor="start" style="mix-blend-mode: normal"><tspan x="0" dy="0">...</tspan></text><path d="M247.55872,157.81186c9.02129,3.22354 15.35862,12.05249 15.05633,22.24283c-0.3746,12.62796 -10.80337,22.56459 -23.29332,22.19409c-12.48995,-0.3705 -22.31138,-10.90784 -21.93679,-23.53579c0.29051,-9.79347 6.62823,-17.96823 15.28474,-20.9718" fill="none" stroke="#000000" stroke-width="4"/><path d="M244.1505,159.37179c0,2.31759 -1.85824,4.19636 -4.1505,4.19636c-2.29226,0 -4.1505,-1.87878 -4.1505,-4.19636c0,-2.31759 1.85824,-4.19636 4.1505,-4.19636c2.29226,0 4.1505,1.87878 4.1505,4.19636z" fill="none" stroke="#000000" stroke-width="1.5"/></g></g></svg>