<svg version="1.1" xmlns="http://www.w3.org/2000/svg" xmlns:xlink="http://www.w3.org/1999/xlink" width="49.25" height="49.75" viewBox="0,0,49.25,49.75"><defs><linearGradient x1="220.19618" y1="170.19759" x2="244.08299" y2="170.19759" gradientUnits="userSpaceOnUse" id="color-1"><stop offset="0" stop-color="#000000"/><stop offset="1" stop-color="#000000"/></linearGradient><linearGradient x1="259.88341" y1="189.78594" x2="235.9966" y2="189.78594" gradientUnits="userSpaceOnUse" id="color-2"><stop offset="0" stop-color="#000000"/><stop offset="1" stop-color="#000000"/></linearGradient></defs><g transform="translate(-215.375,-155.125)"><g data-paper-data="{&quot;isPaintingLayer&quot;:true}" fill-rule="nonzero" stroke-linecap="butt" stroke-linejoin="miter" stroke-miterlimit="10" stroke-dasharray="" stroke-dashoffset="0" style="mix-blend-mode: normal"><path d="M262.625,180c0,12.63351 -10.12956,22.875 -22.625,22.875c-12.49544,0 -22.625,-10.24149 -22.625,-22.875c0,-12.63351 10.12956,-22.875 22.625,-22.875c12.49544,0 22.625,10.24149 22.625,22.875z" fill="none" stroke="#000000" stroke-width="4"/><path d="M220.19618,172.31564v-4.23611h23.88681v4.23611z" fill="url(#color-1)" stroke="none" stroke-width="0"/><path d="M259.88341,187.66789v4.23611h-23.88681v-4.23611z" data-paper-data="{&quot;index&quot;:null}" fill="url(#color-2)" stroke="none" stroke-width="0"/><path d="M244.44347,180c0,2.48118 -1.98941,4.49257 -4.44347,4.49257c-2.45406,0 -4.44347,-2.0114 -4.44347,-4.49257c0,-2.48118 1.98941,-4.49257 4.44347,-4.49257c2.45406,0 4.44347,2.0114 4.44347,4.49257z" fill="#000000" stroke="#000000" stroke-width="0"/></g></g></svg>