<svg version="1.1" xmlns="http://www.w3.org/2000/svg" xmlns:xlink="http://www.w3.org/1999/xlink" width="49.25" height="49.75" viewBox="0,0,49.25,49.75"><defs><linearGradient x1="101.21654" y1="131.56997" x2="87.2828" y2="131.55979" gradientUnits="userSpaceOnUse" id="color-1"><stop offset="0" stop-color="#000000"/><stop offset="1" stop-color="#000000"/></linearGradient></defs><g transform="translate(-215.375,-155.125)"><g data-paper-data="{&quot;isPaintingLayer&quot;:true}" fill-rule="nonzero" stroke="#000000" stroke-linecap="butt" stroke-linejoin="miter" stroke-miterlimit="10" stroke-dasharray="" stroke-dashoffset="0" style="mix-blend-mode: normal"><path d="M262.625,180c0,12.63351 -10.12956,22.875 -22.625,22.875c-12.49544,0 -22.625,-10.24149 -22.625,-22.875c0,-12.63351 10.12956,-22.875 22.625,-22.875c12.49544,0 22.625,10.24149 22.625,22.875z" fill="none" stroke-width="4"/><path d="M235.63264,171.48993c-0.59482,0.59455 -1.55954,0.59383 -2.15393,-0.00158c-0.59482,-0.59513 -0.59412,-1.55957 0.00158,-2.15439c2.35031,-2.34689 5.42561,-5.41756 5.42561,-5.41756c0.59513,-0.59439 1.55973,-0.59368 2.15425,0.00158c0,0 3.5587,3.56345 5.46143,5.46926c0.59455,0.59526 0.59368,1.55955 -0.00158,2.15437c-0.59526,0.59455 -1.55969,0.59384 -2.15424,-0.00157c-2.34674,-2.35031 -2.86161,-2.85979 -2.86161,-2.85979c0,0 -0.00867,7.58306 -0.01064,10.27598c-0.00061,0.84137 -0.68296,1.52289 -1.52434,1.52227c-0.84124,-0.00062 -1.52288,-0.68315 -1.5223,-1.52449c0.00234,-3.21199 0.01051,-10.28426 0.01051,-10.28426c0,0 -0.91838,0.91714 -2.82474,2.82018z" data-paper-data="{&quot;index&quot;:null}" fill="url(#color-1)" stroke-width="0"/><path d="M237.19142,181.09274c-3.51602,-0.00065 -8.64502,-0.00282 -8.64502,-0.00282v-0.00001c0,0 0.92055,0.92043 2.83064,2.83107c0.59676,0.59617 0.59676,1.56374 0,2.16037c-0.59648,0.59703 -1.56378,0.59703 -2.16081,0c-2.35558,-2.3556 -5.43767,-5.43782 -5.43767,-5.43782c-0.5966,-0.59647 -0.5966,-1.56389 0,-2.16064c0,0 3.57148,-3.57189 5.48154,-5.48167c0.5966,-0.59676 1.56378,-0.5966 2.16081,0c0.59672,0.5966 0.59672,1.5639 0,2.16065c-2.35561,2.35546 -2.86622,2.87219 -2.86622,2.87219c0,0 4.95841,0.00206 8.28987,0.00285" data-paper-data="{&quot;index&quot;:null}" fill="none" stroke-width="0.5"/><path d="M242.88275,178.03698c3.32593,-0.00074 8.56258,-0.00292 8.56258,-0.00292c0,0 -0.51061,-0.51673 -2.86622,-2.87219c-0.59672,-0.59676 -0.59672,-1.56405 0,-2.16065c0.59703,-0.5966 1.56421,-0.59676 2.16081,0c1.91006,1.90978 5.48154,5.48167 5.48154,5.48167c0.59659,0.59676 0.59659,1.56417 0,2.16064c0,0 -3.08208,3.08221 -5.43766,5.43782c-0.59703,0.59703 -1.56433,0.59703 -2.16081,0c-0.59676,-0.59663 -0.59676,-1.5642 0,-2.16037c1.91009,-1.91064 2.83064,-2.83107 2.83064,-2.83107l-0.00001,0.00001c0,0 -5.40113,0.00228 -8.91779,0.00286" fill="none" stroke-width="0.5"/><path d="M238.44778,177.8432c0.00305,-3.49206 0.0096,-9.16162 0.0096,-9.16162h0.00001c0,0 -0.91838,0.91714 -2.82474,2.82018c-0.59483,0.59455 -1.55955,0.59383 -2.15394,-0.00158c-0.59482,-0.59513 -0.59412,-1.55957 0.00158,-2.15439c2.35031,-2.34689 5.42561,-5.41756 5.42561,-5.41756c0.59514,-0.59439 1.55973,-0.59368 2.15425,0.00158c0,0 3.5587,3.56345 5.46143,5.46926c0.59455,0.59526 0.59368,1.55955 -0.00158,2.15437c-0.59526,0.59455 -1.5597,0.59384 -2.15425,-0.00157c-2.34674,-2.35032 -2.8616,-2.85979 -2.8616,-2.85979c0,0 -0.00693,6.05533 -0.00981,9.26542" data-paper-data="{&quot;index&quot;:null}" fill="none" stroke-width="0.5"/><path d="M241.49434,182.05433c0.00288,3.21009 0.00981,9.26542 0.00981,9.26542c0,0 0.51486,-0.50947 2.8616,-2.85979c0.59455,-0.59541 1.55899,-0.59612 2.15425,-0.00157c0.59526,0.59482 0.59613,1.55911 0.00158,2.15437c-1.90273,1.90581 -5.46143,5.46926 -5.46143,5.46926c-0.59452,0.59526 -1.55911,0.59597 -2.15425,0.00158c0,0 -3.0753,-3.07067 -5.42561,-5.41756c-0.5957,-0.59482 -0.5964,-1.55926 -0.00158,-2.15439c0.59439,-0.59541 1.55911,-0.59613 2.15394,-0.00158c1.90636,1.90304 2.82474,2.82018 2.82474,2.82018h-0.00001c0,0 -0.00655,-5.66956 -0.0096,-9.16162" fill="none" stroke-width="0.5"/><path d="M243.81429,180c0,2.17076 -1.70772,3.93052 -3.81429,3.93052c-2.10657,0 -3.81429,-1.75976 -3.81429,-3.93052c0,-2.17076 1.70772,-3.93052 3.81429,-3.93052c2.10657,0 3.81429,1.75976 3.81429,3.93052z" fill="#000000" stroke-width="0.5"/></g></g></svg>